<svg width="2326" height="2326" viewBox="0 0 2326 2326" fill="none" xmlns="http://www.w3.org/2000/svg">
<path d="M717.117 225.189C714.78 211.316 711.168 197.457 708.81 183.558C705.105 161.712 689.68 18.9041 724.894 22.9199C749.969 41.1072 781.366 188.872 798.722 227.199C815.186 263.554 830.23 292.247 849.708 328.153C847.695 298.569 840.842 267.272 838.764 236.117C837.126 211.534 831.055 71.0536 868.877 69.5024C874.413 74.0917 875.076 73.8096 876.934 81.7364C889.314 134.605 892.282 187.554 898.692 240.853C907.215 309.899 918.761 378.536 933.296 446.57C965.417 443.615 974.683 455.93 999.535 476.288C994.974 463.624 991.328 450.649 988.63 437.461C979.809 394.485 987.458 354.511 1011.72 317.922C1046.73 335.185 1061.12 375.627 1081.33 410.955C1080.73 375.045 1062.42 243.097 1102.26 226.017C1139.94 231.051 1154.32 339.967 1172.01 361.621L1175.08 361.498C1185.7 341.048 1158.5 202.134 1208.7 158.512C1213.36 157.291 1214.92 156.191 1219.35 158.616C1238.29 169.004 1249.77 297.931 1254.14 323.18C1257.2 340.862 1262.17 358.055 1267.21 375.252C1273.52 344.126 1293.06 186.823 1335.03 193.547C1362.51 211.76 1343.24 500.274 1342.17 543.985C1341.48 571.765 1327.09 710.7 1331.68 729.712C1340.4 733.422 1361.9 716.09 1373.36 738.094C1402.46 793.989 1376.29 850.59 1358.62 903.554C1349.94 929.59 1382.04 1002.67 1398.24 1025.88C1450.77 994.547 1470.83 942.657 1509.64 899.52C1550.38 854.226 1618.98 803.454 1675.35 855.823C1688.12 868.83 1688.61 874.79 1697.65 888.937C1706.18 897.687 1714.92 906.239 1723.85 914.584C1733.1 921.832 1755.86 937.551 1757.88 948.652C1749.65 956.214 1739.58 947.509 1729.34 946.31C1684.85 941.101 1651.64 970.928 1638.05 1011.09C1631.21 1031.28 1633.38 1060.61 1630.14 1081.91C1620.29 1166.28 1624.18 1250.8 1589.84 1330.47C1567.96 1381.27 1528.65 1428.84 1490.35 1468.28C1479.26 1479.7 1434.52 1527.87 1422.09 1533.67C1417.69 1539.31 1412.27 1544.37 1411.34 1550.61C1480.1 1581.64 1542.39 1626.42 1618.07 1639.72C1665.41 1648.04 1702.02 1655.85 1673.46 1713.02C1669.48 1721.14 1663.97 1729.97 1656.02 1735.51C1629.13 1768.78 1549.93 1756.78 1544.19 1763.77C1548.52 1772.36 1557.18 1776.53 1563.51 1783.47C1584.95 1806.96 1606.41 1832.74 1594.42 1866.55C1574.43 1922.95 1525.72 1944.14 1469.4 1925.97C1459.47 1922.76 1452.26 1913.09 1444.28 1912.64C1446.93 1925.32 1455.7 1945.54 1460.71 1958.94C1495.01 2050.72 1367.67 2139.78 1289.66 2086.98C1262.66 2068.71 1258.97 2038.71 1248.18 2010.19C1240.56 2038.74 1247.37 2067.9 1232.03 2100.4C1214.11 2144.65 1178.07 2157.47 1133.16 2159.35C1110.86 2161.81 1098.48 2157.02 1078.44 2149.23C1071.09 2134 1069.28 2126.87 1064.89 2110.54C1053.84 2133.72 1058.33 2141.14 1040.19 2163.49C1026.09 2179.63 1004.27 2170.39 986.64 2165.14C970.796 2140.74 969.74 2131.15 969.547 2103.29C951.92 2120.97 911.299 2150.85 885.527 2135.52C847.768 2133.21 829.24 2105.9 820.935 2072.58C779.235 2074.35 767.735 2064.32 736.411 2039.61C711.05 2019.61 671.942 1984.42 663.408 1951.24C652.609 1909.25 646.437 1891.16 618.725 1856.72C599.99 1831.26 608.204 1758.12 617.723 1729.49C627.932 1698.8 639.071 1688.97 668.044 1674.24C656.818 1640.23 654.122 1608.71 684.105 1582.4C755.13 1520.06 868.102 1552.17 952.849 1554.71C981.129 1555.56 1016.7 1540.34 1038.24 1540.78C1058.17 1533.24 1119.95 1516.35 1129.58 1500.61C1117.6 1481.73 1099.46 1486.17 1085.22 1473.77C1060.56 1452.3 1074.94 1449.18 1040.94 1435.99C1008.73 1441.49 943.161 1445.53 912.994 1432.99C900.255 1415.7 894.767 1403.8 887.449 1383.95C850.473 1409 814.05 1397.91 792.794 1358.73C788.262 1350.38 785.205 1336.57 778.626 1330.34C768.023 1331.76 765.731 1330.84 756.239 1327.54C717.785 1314.17 698.082 1287.23 691.345 1247.3C660.943 1236.06 627.266 1218.73 623.666 1184.78C622.589 1178.28 618.082 1158 613.26 1153.98C573.148 1120.55 561.993 1093.11 544.627 1044.56C538.664 1027.88 519.005 1003 513.565 984.773C508.781 968.736 509.097 947.932 504.345 931.55C497.598 910.582 482.706 889.382 476.496 868.482C470.202 847.296 469.541 821.964 467.919 799.754C465.818 770.99 458.913 740.859 460.594 712.131C461.804 691.458 470.143 668.601 471.617 647.376C473.216 624.377 469.043 601.51 472.939 578.838C476.015 559.524 495.045 543.692 499.2 526.076L499.547 524.566C505.169 501.013 501.714 475.199 506.223 450.64C510.862 425.388 524.643 406.521 532.241 382.836C539.201 361.144 533.447 331.015 548.523 311.057C554.669 302.919 564.466 303.421 574.704 302.428C566.327 264.572 556.973 199.862 571.86 163.541C576.719 169.088 583.374 175.456 588.689 180.793C616.247 208.462 630.237 245.905 654.338 275.772C649.456 263.256 644.652 250.711 639.925 238.136C631.716 216.141 601.855 88.6633 626.871 80.6679C664.818 104.461 683.39 192.656 717.117 225.189ZM1246.07 1792.98L1240.77 1789.43C1233.17 1799.15 1238.78 1897.52 1244.19 1910.84C1252.7 1890.03 1252.01 1814.95 1246.07 1792.98Z" fill="#EAEAEA"/>
<path d="M753.924 446.644C779.987 465.806 865.713 607.665 891.983 642.316C906.409 661.342 923.513 679.848 938.889 698.443C945.233 706.113 963.078 731.143 971.126 734.582C981.679 706.908 880.359 576.532 879.346 553.574C897.95 558.855 932.767 646.469 951.221 654.607L955.237 650.362C952.481 641.921 950.412 637.117 946.637 629.053C950.546 621.728 952.452 622.618 954.964 615.483C958.708 604.851 945.796 573.166 955.539 568.736C962.006 576.943 982.531 669.899 996.323 695.358C1017.05 733.616 1037.99 784.595 1065.7 821.323C1081.43 842.178 1106.68 864.352 1119.88 885.106C1124.1 892.929 1126.07 893.456 1133.97 897.352C1133.88 909.425 1133.86 924.303 1148.23 927.84C1159.8 924.496 1162.28 918.992 1168.39 907.846C1180.26 885.888 1185.07 860.797 1182.16 836.004C1181.94 834.066 1181.78 832.24 1181.54 830.289L1183.23 829.271C1209.13 871.836 1179.59 915.006 1162.16 953.349C1186.68 973.11 1210.71 993.474 1235.42 1012.98C1265.32 1036.58 1298.63 1055.1 1323.95 1084.14C1329.88 1089.15 1344.43 1110.08 1350.97 1112.47C1384.17 1124.62 1429.69 1135.98 1465.18 1133.85C1494.02 1132.11 1530.18 1070.75 1546.38 1050.64C1553.88 1041.34 1564.57 1033.96 1568.41 1023.27C1571.78 1013.09 1573.79 997.972 1567.38 988.577C1564.25 986.676 1561.57 985.208 1558.8 982.782C1568.72 954.646 1617.86 923.215 1621.54 914.238L1619.41 910.263L1611.17 908.582C1602.5 903.369 1599.7 900.648 1598.23 890.485C1601.2 880.532 1599.93 883.682 1607.74 876.002C1638.58 877.258 1644.13 866.541 1673.46 856.463L1675.35 855.822C1688.12 868.829 1688.61 874.789 1697.65 888.936C1706.18 897.686 1714.92 906.238 1723.85 914.583C1733.1 921.832 1755.86 937.55 1757.88 948.651C1749.65 956.213 1739.58 947.509 1729.34 946.309C1684.85 941.101 1651.64 970.928 1638.05 1011.09C1631.21 1031.28 1633.38 1060.61 1630.14 1081.91C1620.29 1166.28 1624.18 1250.8 1589.84 1330.47C1567.96 1381.27 1528.65 1428.84 1490.35 1468.28C1479.26 1479.7 1434.52 1527.87 1422.09 1533.67C1417.69 1539.31 1412.27 1544.37 1411.34 1550.61C1480.1 1581.64 1542.4 1626.42 1618.07 1639.72C1665.41 1648.04 1702.02 1655.85 1673.46 1713.02C1669.48 1721.14 1663.97 1729.96 1656.02 1735.5C1629.13 1768.78 1549.93 1756.78 1544.19 1763.77C1548.52 1772.36 1557.18 1776.53 1563.51 1783.46C1584.95 1806.96 1606.41 1832.74 1594.42 1866.55C1574.43 1922.95 1525.72 1944.14 1469.4 1925.97C1459.47 1922.76 1452.26 1913.09 1444.28 1912.64C1446.93 1925.32 1455.7 1945.54 1460.71 1958.94C1495.01 2050.72 1367.67 2139.78 1289.66 2086.98C1262.66 2068.71 1258.97 2038.71 1248.18 2010.19C1240.56 2038.74 1247.37 2067.9 1232.03 2100.4C1214.11 2144.65 1178.07 2157.47 1133.16 2159.35C1110.86 2161.81 1098.48 2157.02 1078.44 2149.23C1071.09 2134 1069.28 2126.87 1064.89 2110.54C1053.84 2133.72 1058.33 2141.13 1040.19 2163.49C1026.09 2179.63 1004.27 2170.39 986.64 2165.14C970.796 2140.74 969.74 2131.15 969.547 2103.29C951.92 2120.97 911.299 2150.85 885.527 2135.52C847.768 2133.21 829.24 2105.9 820.935 2072.58C779.235 2074.35 767.735 2064.32 736.411 2039.61C711.05 2019.61 671.942 1984.42 663.408 1951.23C652.609 1909.25 646.437 1891.16 618.725 1856.72C599.99 1831.26 608.204 1758.12 617.724 1729.49C627.932 1698.8 639.071 1688.97 668.044 1674.24C656.818 1640.23 654.122 1608.71 684.105 1582.4C755.13 1520.06 868.103 1552.17 952.849 1554.71C981.129 1555.56 1016.7 1540.34 1038.24 1540.78C1058.17 1533.24 1119.95 1516.35 1129.58 1500.61C1128.89 1510.72 1137.43 1522.77 1143.37 1530.64C1149.91 1539.29 1161.13 1551.41 1172.58 1552.57C1176.98 1553.01 1183.43 1547.98 1186.84 1545.32C1218.11 1520.92 1333.21 1331.02 1337.27 1290.44C1339.01 1273.13 1339.81 1221.64 1329.19 1208.47C1305.57 1207.2 1277.24 1256.56 1259.62 1270.1C1240.45 1284.83 1182.91 1349.31 1159.41 1342.79C1157.87 1332.41 1177.61 1305.96 1184.38 1295.78L1183.07 1292.08C1175.08 1288.55 1172.92 1288.14 1167.24 1294.11C1159.13 1300.83 1152.9 1310.33 1139.67 1309.15C1127.07 1294.07 1150.79 1258.43 1132.93 1248.34C1124 1250.85 1108.5 1288.05 1105.06 1298.11C1101.34 1294.79 1086.62 1275.53 1084.77 1271.26C1078.77 1257.43 1089.13 1243.15 1088.71 1231.7L1087.64 1242.78C1079.44 1242.54 1074.91 1237.04 1069.39 1234.34C1067.77 1233.55 1060.72 1241.88 1055.25 1238.07C1041.81 1228.71 1051.15 1227.73 1035.9 1224.4C1035.22 1216.08 1045.34 1206.98 1043.7 1203.58C1031.48 1178.13 1020.18 1215.74 996.137 1197.76C991.764 1185.61 1011.8 1168.8 1000.01 1154.72C980.507 1158.24 946.775 1205.29 930.296 1198.06C930.5 1190.79 937.64 1186.92 940.611 1178.22C942.63 1172.29 946.987 1154.15 950.062 1149.85C959.632 1136.46 998.127 1117.06 1004.46 1102.83C1000.77 1102.18 996.201 1101.38 990.745 1100.42C974.549 1106.06 956.057 1124.64 940.679 1130.87C937.367 1126.37 937.342 1113.67 935.468 1105.66L935.125 1104.24C936.969 1102.95 954.171 1089.1 953.635 1089.17C960.257 1088.32 978.79 1093.32 987.528 1089.8C983.074 1085.78 967.301 1090.83 954.876 1084.4L954.528 1080.67C962.558 1071.31 984.144 1061.56 995.905 1055.84C970.167 1051.95 942.03 1052.46 913.382 1048.11L914.445 1047.59C935.85 1036.83 935.127 1034.99 952.874 1020.06C955.739 1017.65 972.841 1011.92 980.078 1007.42C975.305 1001.86 963.639 999.046 956.1 996.523C949.04 995.671 942.262 993.549 935.4 991.65C940.177 985.708 945.719 977.472 950.26 971.109C941.553 963.638 795.776 981.703 771.798 970.843C772.398 968.122 787.717 969.799 792.151 970.133C815.143 971.863 958.68 968.431 966.501 962.271C964.827 955.295 952.986 941.978 946.283 941.505C880.219 936.839 816.522 922.275 752.252 907.635L752.234 905.788C779.81 900.518 839.579 918.511 874.067 920.723C904.117 922.649 937.517 924.905 967.748 926.868C931.77 887.128 888.673 892.645 842.18 874.744C828.433 869.449 750.424 841.746 746.544 832.887L749.726 832.203C796.578 852.799 910.039 882.51 959.807 893.763C934.171 841.507 879.817 847.089 837.235 816.544C809.941 796.966 734.096 765.624 717.869 740.901C725.006 741.735 780.682 775.932 791.131 781.683C831 803.633 871.964 828.331 915.354 843.063L917.262 843.702C926.23 843.084 930.771 846.378 942.044 846.035L944.747 842.857L942.56 831.07C912.54 807.755 833.453 767.219 814.611 733.614C834.419 734.557 918.082 824.635 954.194 819.497L956.245 815.474C944.917 788 880.007 757.665 865.275 731.266C889.636 750.189 913.705 766.255 939.177 783.587C947.066 788.954 952.193 795.203 960.806 800.889L963.262 798.926C965.449 791.205 963.246 786.497 960.913 778.774L966.967 774.465C972.825 754.366 970.787 761.894 961.574 743.118C942.562 704.369 903.626 674.265 880.757 639.438C839.284 576.278 792.573 511.349 753.924 446.644ZM1246.07 1792.98L1240.77 1789.43C1233.17 1799.15 1238.78 1897.52 1244.19 1910.84C1252.7 1890.03 1252.01 1814.95 1246.07 1792.98Z" fill="#B8B9BF"/>
<path d="M1244.18 1910.84C1238.78 1897.52 1233.17 1799.15 1240.77 1789.43L1246.07 1792.98C1252.01 1814.95 1252.7 1890.03 1244.18 1910.84Z" fill="#EAEAEA" fill-opacity="0.0117647"/>
<path d="M1038.24 1540.78L1044.99 1544.6C1048.62 1542.8 1099.47 1523.86 1101.11 1523.67L1104.32 1526.18C1103.35 1535.88 1097.7 1541.18 1091.66 1549.24C1083.21 1568.13 1044.19 1597.17 1033.51 1617.43C1011.09 1660 1030.21 1679.15 988.593 1714.05C981.536 1719.97 947.389 1789.02 944.29 1799.35C943.586 1807.68 942.055 1807.79 946.253 1813.02C962.374 1817.93 969.579 1815.24 986.217 1814.72C986.485 1815.74 977.197 1845.03 976.505 1856.57C970.751 1952.61 911.899 2034.15 873.847 2118.57C872.443 2121.69 878.601 2127.7 880.771 2129.81L886.349 2131.36L885.527 2135.52C847.768 2133.21 829.24 2105.9 820.935 2072.58C779.235 2074.35 767.735 2064.32 736.411 2039.61C711.05 2019.61 671.942 1984.42 663.408 1951.24C652.609 1909.25 646.437 1891.16 618.725 1856.72C599.99 1831.26 608.204 1758.12 617.724 1729.5C627.932 1698.8 639.071 1688.97 668.044 1674.24C656.818 1640.23 654.122 1608.71 684.105 1582.4C755.13 1520.06 868.103 1552.17 952.849 1554.71C981.129 1555.56 1016.7 1540.34 1038.24 1540.78Z" fill="#DCDCDD"/>
<path d="M1030.64 1611.79C983.253 1647.63 734.184 1798.34 685.302 1786.42C664.495 1718.48 785.241 1731.43 816.678 1714.91C894.136 1674.2 1027.65 1606.52 1091.66 1549.24C1083.21 1568.13 1044.19 1597.16 1033.51 1617.43C1011.09 1660 1030.21 1679.15 988.593 1714.05C981.535 1719.97 947.388 1789.02 944.29 1799.35C944.292 1798.02 944.297 1796.69 944.299 1795.35L944.399 1793.32C945.099 1776.13 956.37 1755.29 965.426 1740.9L961.322 1744.18C972.597 1724.05 1023.75 1677.56 1012.66 1655.21L1008.16 1656.59C1008.19 1653.99 1027.92 1617.28 1030.64 1611.79Z" fill="#CDCDD1"/>
<path d="M1397.34 1549.52C1408.67 1544.44 1411.34 1536.95 1422.09 1533.67C1417.69 1539.31 1412.27 1544.37 1411.34 1550.61C1480.1 1581.64 1542.39 1626.42 1618.07 1639.72C1665.41 1648.04 1702.02 1655.85 1673.46 1713.02C1669.48 1721.14 1663.97 1729.96 1656.02 1735.51C1629.13 1768.78 1549.93 1756.78 1544.19 1763.77C1548.52 1772.36 1557.18 1776.53 1563.51 1783.47C1584.95 1806.96 1606.4 1832.74 1594.42 1866.55C1574.43 1922.95 1525.72 1944.14 1469.4 1925.97C1459.46 1922.76 1452.26 1913.09 1444.28 1912.64C1446.93 1925.32 1455.7 1945.54 1460.71 1958.94C1495.01 2050.72 1367.67 2139.78 1289.66 2086.98C1262.66 2068.71 1258.97 2038.71 1248.18 2010.19C1246.83 2006.9 1246.79 1986.29 1246 1979.12C1244.3 1967.85 1239.14 1918.51 1244.19 1910.84C1252.7 1890.03 1252.01 1814.95 1246.07 1792.98C1252.32 1799.45 1253.69 1800.33 1262.47 1802.7L1264.57 1803.25C1270.95 1811.41 1325.33 1939.04 1325.21 1944.46C1335.54 1945.53 1343.96 1945.54 1352.34 1938.94C1356.15 1930.42 1355.41 1933.78 1354.05 1924.28L1353.89 1925.16L1351.3 1919.74C1359.88 1928.8 1366.68 1948.78 1375.57 1958.22L1376.99 1955.97C1373.56 1943.66 1351.68 1901.89 1345.01 1888.42C1328.9 1856.55 1314.26 1823.95 1301.12 1790.74C1295.55 1776.66 1286.47 1753.15 1282.78 1738.99C1276.29 1714 1281.23 1708.85 1268.17 1685.47C1272.04 1678.07 1280.71 1674.97 1288.87 1675.2L1291.2 1679.6C1289.74 1686.52 1282.39 1691.21 1276.89 1698.21C1286.57 1717.12 1303.04 1752.16 1318.15 1765.4C1353.85 1796.67 1383.05 1842.26 1417.28 1872.48C1406.44 1843.94 1402.92 1826.02 1387.17 1797.6C1366.04 1759.45 1336.41 1723.46 1317.74 1685.13C1339.27 1674.5 1341.78 1660.31 1357.89 1658.8C1366.06 1662.56 1364.38 1660.52 1369.31 1667.34C1370.9 1676.86 1365.13 1684.55 1362.36 1695.32L1366.22 1695.28C1389.6 1682.81 1392.65 1679.05 1409.35 1658.6C1423.56 1633.54 1430.24 1609.77 1402.09 1593.4L1385.81 1589.47L1384.59 1586.18C1382.52 1571.55 1397.35 1560.29 1397.34 1549.52Z" fill="#DCDCDD"/>
<path d="M1397.34 1549.52C1408.67 1544.44 1411.34 1536.95 1422.09 1533.67C1417.69 1539.31 1412.27 1544.37 1411.34 1550.61C1480.1 1581.64 1542.39 1626.42 1618.07 1639.72C1665.41 1648.04 1702.02 1655.85 1673.46 1713.02C1669.48 1721.14 1663.97 1729.96 1656.02 1735.51L1651.9 1734.63C1626.6 1754.35 1573.27 1757.5 1541.41 1753.62L1536.64 1758.17C1502.64 1753.08 1432.61 1664.41 1409.35 1658.6C1423.56 1633.54 1430.24 1609.77 1402.09 1593.4L1385.81 1589.47L1384.59 1586.18C1382.52 1571.55 1397.35 1560.29 1397.34 1549.52Z" fill="#D5D5D7"/>
<path d="M1347.44 1579.19C1360.89 1584.81 1371.07 1590.45 1385.81 1589.47L1402.09 1593.4C1430.24 1609.77 1423.56 1633.54 1409.35 1658.6C1392.65 1679.05 1389.6 1682.81 1366.22 1695.28L1362.36 1695.32C1365.13 1684.55 1370.9 1676.86 1369.31 1667.34C1364.38 1660.52 1366.06 1662.56 1357.89 1658.8C1341.78 1660.31 1339.27 1674.5 1317.74 1685.13C1308.11 1688.71 1301.78 1693.39 1293.78 1686.36L1293.71 1676.09L1299.72 1668.96L1296.62 1663.94L1294.1 1661.8C1293.95 1651.51 1306.02 1656.82 1310.86 1639.62C1308.3 1637.52 1307.25 1635.57 1305.42 1632.84C1305.85 1624.82 1314.02 1616.73 1319.42 1610.14C1324.83 1613.85 1329.41 1611.35 1333.32 1607.74C1335.37 1598.23 1332.83 1590.6 1331.11 1580.87L1344.38 1586.77L1347.44 1579.19Z" fill="#816B6C"/>
<path d="M1331.11 1580.87L1344.38 1586.77L1347.88 1592.58C1345.84 1601.11 1343.56 1611.99 1340.75 1620.11C1339.99 1641.12 1330.63 1677.62 1305.16 1680.16L1293.71 1676.09L1299.72 1668.96L1296.62 1663.93L1294.1 1661.8C1293.95 1651.51 1306.02 1656.82 1310.86 1639.62C1308.3 1637.52 1307.25 1635.57 1305.42 1632.84C1305.85 1624.82 1314.02 1616.73 1319.42 1610.13C1324.83 1613.85 1329.41 1611.35 1333.32 1607.74C1335.37 1598.23 1332.83 1590.6 1331.11 1580.87Z" fill="#AAA6AA"/>
<path d="M1323.62 1626.63C1327.66 1639.36 1318.03 1666.78 1306.12 1671.05L1299.72 1668.96L1296.62 1663.93L1294.1 1661.8C1293.95 1651.51 1306.02 1656.82 1310.86 1639.62C1314.03 1635.59 1319.79 1630.35 1323.62 1626.63Z" fill="#816B6C"/>
<path d="M1347.44 1579.19C1360.89 1584.81 1371.07 1590.45 1385.81 1589.47L1402.09 1593.4C1401.03 1597.56 1397.77 1611.48 1396.29 1614.58C1388.58 1643.37 1384.73 1628.03 1366.58 1646.77L1362.74 1638.29C1363.23 1625.14 1364.31 1616.75 1357.46 1605.61C1353.21 1602.04 1350.83 1597.35 1347.88 1592.58L1344.38 1586.77L1347.44 1579.19Z" fill="#634648"/>
<path d="M1396.29 1614.59C1397.85 1627.11 1403.36 1661.53 1383.62 1663.67C1378.44 1661.83 1368.56 1651.58 1366.58 1646.77C1384.73 1628.03 1388.58 1643.37 1396.29 1614.59Z" fill="#6F595A"/>
<path d="M1357.46 1605.61C1364.31 1616.75 1363.23 1625.14 1362.74 1638.29C1349.44 1630.33 1351.22 1617.82 1357.46 1605.61Z" fill="#7E7A7E"/>
<path d="M969.547 2103.29L966.81 2099.71C971.534 2077.07 1015.96 2010.1 1031.46 1990.43C1055.62 2000.31 1027.63 2047.29 1025.92 2065.41C1024.78 2077.47 1021.72 2122.6 1028.46 2130.9C1031.75 2121.79 1032.6 2118.04 1034.31 2108.46C1038.88 2113.41 1028.7 2151.76 1027.85 2160.47L1031.12 2163.77L1040.19 2163.49C1026.09 2179.63 1004.27 2170.39 986.64 2165.14C970.796 2140.74 969.74 2131.15 969.547 2103.29Z" fill="#DCDCDD"/>
<path d="M1064.89 2110.54C1059.48 2092.2 1100.88 1958.66 1121.68 1949.41L1124.73 1949.47C1149.31 1981.36 1094.15 2112.44 1103.01 2150.72C1110.28 2157.54 1127.89 2153.3 1134.07 2157.75L1133.16 2159.35C1110.86 2161.81 1098.48 2157.02 1078.44 2149.23C1071.09 2134 1069.28 2126.87 1064.89 2110.54Z" fill="#DCDCDD"/>
<path d="M1273.8 1624.11C1266.77 1627.94 1251.65 1628.09 1246.61 1620.84C1247.03 1610.95 1259.91 1600.34 1267.08 1593.63C1263.58 1593.58 1262.64 1592.34 1259.88 1590.15C1259.91 1580.03 1290.78 1542.8 1298.84 1544.76C1317.35 1549.25 1309.02 1554.74 1330.5 1548.15C1324 1553.56 1318.11 1559.59 1309.91 1560.98C1303.51 1559.04 1302.45 1557.28 1298.13 1552.29C1287.28 1555.09 1264.69 1577.12 1266.96 1588.89L1269.87 1590.85C1290.09 1582.55 1294.17 1579.56 1317.74 1581.13L1326.45 1580.69L1331.11 1580.87C1332.83 1590.6 1335.37 1598.23 1333.32 1607.74C1329.41 1611.35 1324.83 1613.85 1319.42 1610.13C1307.56 1606.15 1301.76 1607.67 1290.34 1611.32C1286.35 1614.63 1276.44 1621.65 1273.8 1624.11Z" fill="#AAA6AA"/>
<path d="M1326.45 1580.69L1331.11 1580.87C1332.83 1590.6 1335.37 1598.23 1333.32 1607.74C1329.41 1611.35 1324.83 1613.85 1319.42 1610.13C1307.56 1606.15 1301.76 1607.67 1290.34 1611.32C1289.51 1589.21 1298.08 1584.34 1317.74 1581.13L1326.45 1580.69Z" fill="#B8B9BF"/>
<path d="M1330.51 1548.15L1337.82 1538.64C1352.12 1543.72 1363.91 1531.42 1367.23 1535.41C1355.39 1541.83 1323.64 1554.91 1318.95 1565.2C1336.98 1569.95 1340.91 1558.42 1351.34 1559.4C1361.06 1556 1361.82 1553.82 1369.87 1556.2C1375.15 1564.41 1372.67 1573.06 1376.69 1585.75L1384.6 1586.18L1385.82 1589.47C1371.08 1590.45 1360.89 1584.81 1347.44 1579.19L1344.38 1586.77L1331.12 1580.87L1326.45 1580.69L1317.74 1581.13C1294.17 1579.56 1290.09 1582.55 1269.87 1590.85L1266.96 1588.89C1264.69 1577.12 1287.29 1555.09 1298.13 1552.29C1302.46 1557.28 1303.51 1559.04 1309.91 1560.98C1318.11 1559.59 1324 1553.56 1330.51 1548.15Z" fill="#7E7A7E"/>
<path d="M1334.4 1568.43C1347.54 1567.76 1345.7 1557.91 1359.93 1568.97C1363.63 1571.85 1369.67 1580.4 1371.71 1584.7L1376.69 1585.75L1384.59 1586.18L1385.81 1589.47C1371.07 1590.45 1360.89 1584.81 1347.44 1579.19C1342.3 1573.14 1341.03 1572.48 1334.4 1568.43Z" fill="#816B6C"/>
<path d="M1334.4 1568.44C1341.03 1572.48 1342.3 1573.14 1347.44 1579.19L1344.38 1586.77L1331.12 1580.87L1326.45 1580.69L1323.12 1577.18L1323.97 1573.22L1334.4 1568.44Z" fill="#6F595A"/>
<path d="M1290.34 1611.32C1301.76 1607.67 1307.56 1606.15 1319.42 1610.13C1314.02 1616.73 1305.85 1624.82 1305.42 1632.84C1307.25 1635.57 1308.29 1637.52 1310.86 1639.62C1306.02 1656.82 1293.95 1651.51 1294.1 1661.8L1296.62 1663.93C1285.76 1671.34 1276.74 1676.15 1265.08 1668.67C1258.52 1652 1272.4 1651.15 1270.98 1639.56L1264.97 1636.44C1267.68 1634.35 1268.2 1635 1272.23 1634.62C1275.77 1629.39 1274.95 1631.79 1273.8 1624.11C1276.44 1621.65 1286.35 1614.63 1290.34 1611.32Z" fill="#929194"/>
<path d="M1351.34 1559.4C1355.43 1553.26 1384.99 1534.48 1393.44 1542.49L1393.62 1551.67L1397.34 1549.52C1397.35 1560.28 1382.52 1571.55 1384.59 1586.18L1376.69 1585.75C1372.67 1573.06 1375.15 1564.41 1369.87 1556.2C1361.82 1553.82 1361.06 1556 1351.34 1559.4Z" fill="#929194"/>
<path d="M1697.65 888.937C1706.18 897.687 1714.92 906.239 1723.85 914.584C1721.38 915.363 1715.23 917.487 1712.96 917.903L1687.12 918.039L1682.77 916.656L1681.27 912.224C1683.55 904.131 1691.98 895.615 1697.65 888.937Z" fill="#CDCDD1"/>
<path d="M1246 1979.12C1246.79 1986.29 1246.83 2006.9 1248.18 2010.19C1240.56 2038.74 1247.37 2067.9 1232.03 2100.4C1227.65 2089.04 1243.78 2040.64 1241.51 2033.6C1230.47 1999.35 1245.37 2009.22 1246 1979.12Z" fill="#CDCDD1"/>
<path d="M1607.74 876.002C1621.48 881.34 1627.35 886.842 1622.47 902.338C1617.87 906.515 1617.14 906.803 1611.17 908.582C1602.5 903.369 1599.7 900.648 1598.23 890.485C1601.2 880.532 1599.93 883.682 1607.74 876.002Z" fill="#222022"/>
<path d="M942.56 831.07C949.316 837.49 962.622 848.002 966.002 855.684L964.523 859.262C949.182 861.781 931.114 850.66 917.263 843.702C926.231 843.084 930.771 846.378 942.045 846.035L944.748 842.857L942.56 831.07Z" fill="#CDCDD1"/>
<path d="M1687.12 918.039L1712.96 917.903L1716.29 920.149L1716.52 923.79C1705.98 930.244 1694.9 927.543 1687.12 918.039Z" fill="#816B6C"/>
<path d="M1128.93 1543.84C1132.89 1556.32 1133.11 1583.69 1139 1601.5C1147.74 1627.95 1171.77 1636.77 1195.44 1650.04C1203.89 1651.08 1210.04 1648.55 1218.19 1646.1L1219.16 1647.75C1212.77 1656.89 1210.39 1653.43 1205.74 1659.78C1204.09 1669.38 1206.75 1678.92 1208.69 1688.52C1193.97 1704.84 1194.36 1686.2 1171.25 1699.57L1165.8 1704.16L1164.48 1702.47C1174.49 1686.7 1183.62 1688.51 1200.95 1688.64L1201.28 1685.5C1198.33 1679.87 1197.21 1678.36 1196.79 1672.08C1200.16 1667.69 1202.38 1665.84 1202.52 1660.39C1190.06 1649.71 1172.63 1666.04 1161.97 1663.26C1163.56 1660.03 1163.4 1660.23 1163.33 1656.6C1154.61 1653.97 1144 1651.67 1137.32 1645.82C1133.84 1636.4 1136.07 1639.62 1138.01 1628.92C1140.67 1614.24 1130.57 1591.09 1129.55 1574.98C1128.83 1563.4 1128.77 1554.94 1128.93 1543.84Z" fill="#AAA6AA"/>
<path d="M1185.84 1884.62C1189.73 1898.3 1191.38 2039.08 1185.74 2056.43C1178.81 2038.01 1184.16 1908.82 1185.84 1884.62Z" fill="#AAA6AA"/>
<path d="M956.099 996.523C963.638 999.046 975.304 1001.86 980.077 1007.42C972.84 1011.92 955.738 1017.65 952.873 1020.06C935.126 1034.99 935.848 1036.83 914.444 1047.59L913.381 1048.11C942.029 1052.46 970.166 1051.95 995.904 1055.84C984.142 1061.56 962.557 1071.31 954.527 1080.67L954.874 1084.4C967.299 1090.83 983.073 1085.78 987.527 1089.8C978.789 1093.32 960.256 1088.32 953.634 1089.17C954.17 1089.1 936.968 1102.95 935.124 1104.24C927.726 1109.28 910.837 1117.9 906.003 1121.61C917.756 1111.98 930.061 1102.16 941.241 1091.96C954.538 1079.82 958.806 1064.06 978.091 1060.14L979.82 1059.8L978.187 1057.61C958.218 1057.09 935.933 1056.14 916.102 1053.82C903.557 1052.34 899.636 1047.52 885.367 1047.51C830.449 1047.48 773.524 1052.52 718.942 1051.52C709.981 1050.77 699.603 1050.99 692.738 1045.6C755.479 1041.73 814.971 1034.67 876.17 1020.83C897.438 1016.03 944.223 1019.29 959.733 1003.93L956.099 996.523Z" fill="#CDCDD1"/>
<path d="M960.913 778.774C936.935 743.309 891.834 718.998 860.206 691.626C842.845 676.6 788.7 626.314 782.145 605.539L784.227 603.077C791.707 608.045 818.118 640.795 826.052 649.647C868.486 696.985 925.775 726.362 966.966 774.465L960.913 778.774Z" fill="#AAA6AA"/>
<path d="M1119.88 885.107C1121.89 880.593 1122.68 880.977 1121.9 877.404C1114.8 844.874 1119.39 793.832 1120.88 760.75C1127.88 791.197 1136.64 865.368 1133.97 897.352C1126.07 893.457 1124.1 892.93 1119.88 885.107Z" fill="#DCDCDD"/>
<path d="M1105.06 1298.11C1108.5 1288.05 1124 1250.85 1132.93 1248.34C1150.79 1258.43 1127.07 1294.07 1139.67 1309.15C1152.9 1310.33 1159.13 1300.83 1167.24 1294.11C1163.59 1305.08 1157.06 1317.87 1146.39 1323.32C1122.92 1322.06 1131.93 1273.87 1131.98 1255.5C1125.09 1268.16 1109.46 1298.58 1105.67 1312.42C1104.13 1318.05 1106.58 1331.98 1103.67 1343.97L1101.82 1343.43C1100.66 1331.15 1097.1 1307.74 1105.06 1298.11Z" fill="#CDCDD1"/>
<path d="M718.943 1051.52C700.328 1052.3 683.292 1053.26 664.973 1049.24C669.963 1046.19 685.961 1046.05 692.739 1045.6C699.604 1050.99 709.982 1050.77 718.943 1051.52Z" fill="#DCDCDD"/>
</svg>
